<svg xmlns="http://www.w3.org/2000/svg" viewBox="0 0 500 500">
  <defs>
    <radialGradient id="grad" cx="50%" cy="50%" r="50%">
      <stop offset="0%" style="stop-color:#ffffff;stop-opacity:1" />
      <stop offset="100%" style="stop-color:#f0f0f0;stop-opacity:1" />
    </radialGradient>
  </defs>
  
  <!-- Outer blue circle -->
  <circle cx="250" cy="250" r="230" fill="#2BB8E6" stroke="#1A8BC8" stroke-width="8"/>
  
  <!-- Inner white circle -->
  <circle cx="250" cy="250" r="140" fill="url(#grad)"/>
  
  <!-- Car icon -->
  <g transform="translate(250, 250) scale(2.5, 2.5) translate(-24, -24)">
    <!-- Car body -->
    <path d="M42 32H6c-1.1 0-2 .9-2 2v8c0 1.1.9 2 2 2h2v2c0 1.1.9 2 2 2s2-.9 2-2v-2h24v2c0 1.1.9 2 2 2s2-.9 2-2v-2h2c1.1 0 2-.9 2-2v-8c0-1.1-.9-2-2-2z" fill="#2BB8E6"/>
    
    <!-- Car windshield -->
    <path d="M36 20H12c-2.2 0-4 1.8-4 4v8h32v-8c0-2.2-1.8-4-4-4z" fill="#2BB8E6"/>
    
    <!-- Car roof -->
    <path d="M33 14c-1.1 0-2.1.4-2.8 1.2L28 18H20l-2.2-2.8c-.7-.8-1.7-1.2-2.8-1.2-2.2 0-4 1.8-4 4v4h24v-4c0-2.2-1.8-4-4-4z" fill="#2BB8E6"/>
    
    <!-- Left headlight -->
    <circle cx="12" cy="36" r="4" fill="white"/>
    
    <!-- Right headlight -->
    <circle cx="36" cy="36" r="4" fill="white"/>
    
    <!-- Front grille -->
    <rect x="18" y="34" width="12" height="2" fill="white"/>
  </g>
  
  <!-- Location pin bottom -->
  <path d="M 250 380 Q 220 360 190 320 Q 160 280 160 250 Q 160 190 205 145 Q 250 100 295 145 Q 340 190 340 250 Q 340 280 310 320 Q 280 360 250 380 Z" fill="#2BB8E6"/>
</svg>
